<?xml version="1.0" standalone="no"?>
<!DOCTYPE svg PUBLIC "-//W3C//DTD SVG 20010904//EN"
 "http://www.w3.org/TR/2001/REC-SVG-20010904/DTD/svg10.dtd">
<svg version="1.0" xmlns="http://www.w3.org/2000/svg"
 width="260.000000pt" height="260.000000pt" viewBox="0 0 260.000000 260.000000"
 preserveAspectRatio="xMidYMid meet">
<metadata>
Created by potrace 1.11, written by Peter Selinger 2001-2013
</metadata>
<g transform="translate(0.000000,260.000000) scale(0.100000,-0.100000)"
fill="#000000" stroke="none">
<path d="M1035 2584 c-254 -54 -477 -175 -660 -359 -186 -186 -313 -421 -361
-672 -20 -105 -19 -400 2 -501 93 -456 416 -826 854 -979 147 -52 247 -68 425
-68 178 0 278 16 425 68 321 112 593 350 743 652 249 501 150 1103 -248 1500
-185 186 -410 307 -667 359 -102 21 -413 21 -513 0z m501 -188 c75 -24 154
-75 191 -124 55 -73 63 -118 63 -369 l0 -223 -210 0 -210 0 0 205 c0 192 -1
206 -20 225 -39 39 -100 17 -119 -43 -8 -22 -8 -68 -2 -144 13 -165 28 -189
282 -448 314 -322 319 -332 319 -654 0 -145 -4 -222 -14 -259 -53 -196 -222
-291 -519 -292 -256 0 -415 68 -484 208 l-28 57 -3 297 -3 298 210 0 211 0 0
-250 0 -251 25 -24 c30 -31 82 -33 119 -4 26 20 26 21 26 168 0 237 -4 244
-293 539 -109 112 -216 230 -237 263 -55 85 -62 132 -58 359 3 173 6 201 26
251 44 110 154 190 307 223 92 20 347 15 421 -8z"/>
</g>
</svg>
